<?xml version="1.0" encoding="UTF-8" standalone="no"?>
<!-- Generator: Adobe Illustrator 25.2.0, SVG Export Plug-In . SVG Version: 6.00 Build 0)  -->

<svg
   xmlns:ns="&amp;ns_sfw;"
   xmlns:dc="http://purl.org/dc/elements/1.1/"
   xmlns:cc="http://creativecommons.org/ns#"
   xmlns:rdf="http://www.w3.org/1999/02/22-rdf-syntax-ns#"
   xmlns:svg="http://www.w3.org/2000/svg"
   xmlns="http://www.w3.org/2000/svg"
   xmlns:xlink="http://www.w3.org/1999/xlink"
   xmlns:sodipodi="http://sodipodi.sourceforge.net/DTD/sodipodi-0.dtd"
   xmlns:inkscape="http://www.inkscape.org/namespaces/inkscape"
   version="1.1"
   id="Layer_1"
   x="0px"
   y="0px"
   width="1556.3px"
   height="780.1px"
   viewBox="0 0 1556.3 780.1"
   style="enable-background:new 0 0 1556.3 780.1;"
   xml:space="preserve"
   sodipodi:docname="main-background-reverse.svg"
   inkscape:version="0.92.5 (2060ec1f9f, 2020-04-08)"><defs
   id="defs166" /><sodipodi:namedview
   pagecolor="#ffffff"
   bordercolor="#666666"
   borderopacity="1"
   objecttolerance="10"
   gridtolerance="10"
   guidetolerance="10"
   inkscape:pageopacity="0"
   inkscape:pageshadow="2"
   inkscape:window-width="2488"
   inkscape:window-height="1376"
   id="namedview164"
   showgrid="false"
   inkscape:zoom="0.89185887"
   inkscape:cx="592.56127"
   inkscape:cy="281.09303"
   inkscape:window-x="72"
   inkscape:window-y="27"
   inkscape:window-maximized="1"
   inkscape:current-layer="Layer_1" />
<style
   type="text/css"
   id="style2">
	.st0{display:none;}
	.st1{fill:#35548C;}
	.st2{fill:#EC6C6A;}
	.st3{fill:#474F89;}
	.st4{fill:#5B387A;}
	.st5{fill:url(#SVGID_1_);}
	.st6{fill:#983985;}
	.st7{fill:url(#SVGID_2_);}
	.st8{fill:#CE4F97;}
	.st9{fill:url(#SVGID_3_);}
	.st10{fill:#E3539E;}
	.st11{fill:url(#SVGID_4_);}
	.st12{fill:#AD428F;}
	.st13{fill:url(#SVGID_5_);}
	.st14{fill:#81337B;}
	.st15{fill:url(#SVGID_6_);}
	.st16{fill:url(#SVGID_7_);}
	.st17{fill:#356195;}
	.st18{fill:url(#SVGID_8_);}
	.st19{fill:url(#SVGID_9_);}
	.st20{fill:#E25677;}
	.st21{fill:#DB5873;}
	.st22{fill:url(#SVGID_10_);}
	.st23{fill:url(#SVGID_11_);}
	.st24{fill:#E97362;}
	.st25{fill:#E37D55;}
	.st26{fill:#E28B54;}
	.st27{fill:#E4A756;}
	.st28{fill:#E59D55;}
	.st29{fill:#E3C255;}
	.st30{fill:#E1A354;}
	.st31{fill:#E38355;}
	.st32{fill:#E47959;}
	.st33{fill:#E5765E;}
	.st34{fill:#E67A56;}
	.st35{fill:#E28A54;}
	.st36{fill:#E39452;}
	.st37{fill:#E49E56;}
	.st38{fill:#E4B154;}
	.st39{fill:#E5C253;}
	.st40{fill:#E3A454;}
	.st41{fill:#E6BB54;}
	.st42{fill:#E4D255;}
	.st43{fill:#E3C855;}
	.st44{fill:#E4CB55;}
	.st45{fill:#E7626F;}
	.st46{fill:#E65B6E;}
</style>
<metadata
   id="metadata4">
	<ns:sfw>
		<ns:slices />
		<ns:sliceSourceBounds
   bottomLeftOrigin="true"
   height="780.1"
   width="1556.3"
   x="0"
   y="0" />
	</ns:sfw>
<rdf:RDF><cc:Work
     rdf:about=""><dc:format>image/svg+xml</dc:format><dc:type
       rdf:resource="http://purl.org/dc/dcmitype/StillImage" /></cc:Work></rdf:RDF></metadata>
<g
   id="Layer_1_1_"
   class="st0">
	
		<image
   sodipodi:absref="/home/akahito/workspace/hosting/site/www/img/272F3219.jpeg"
   xlink:href="272F3219.jpeg"
   id="image6"
   transform="matrix(0.3543 0 0 0.3543 494.6614 247.949)"
   height="802"
   width="1600"
   style="display:inline;overflow:visible;enable-background:new    ;">
	</image>
</g>
<g
   id="Layer_2_1_"
   transform="matrix(-1,0,0,1,1556.3,0)">
	<g
   id="g160">
		<rect
   x="1208"
   y="134.3"
   class="st1"
   width="7.3000002"
   height="5.5999999"
   id="rect9"
   style="fill:#35548c" />
		<polygon
   class="st2"
   points="583.6,656.6 565.1,541.3 502.1,582.7 289.3,758.9 297,780.1 437.5,780.1 464.7,770.1 514.1,711.1 "
   id="polygon11"
   style="fill:#ec6c6a" />
		<polygon
   class="st3"
   points="1209.3,10.3 1207.7,103.6 1211.7,137.1 1242,137.9 1547.3,79.7 1556.3,69.3 1556.3,0 1218.3,0 "
   id="polygon13"
   style="fill:#474f89" />
		<polygon
   class="st1"
   points="1211.7,137.1 1218.3,0 1166.5,0 1164.6,21.5 1187.7,99.6 "
   id="polygon15"
   style="fill:#35548c" />
		<polygon
   class="st4"
   points="1233.2,150.6 1547.3,215.2 1556.3,207.5 1556.3,69.3 1211.7,137.1 "
   id="polygon17"
   style="fill:#5b387a" />
		
			<linearGradient
   id="SVGID_1_"
   gradientUnits="userSpaceOnUse"
   x1="1222.4144"
   y1="654.73022"
   x2="1504.1309"
   y2="457.08621"
   gradientTransform="matrix(1,0,0,-1,0,780)">
			<stop
   offset="0"
   style="stop-color:#66367B"
   id="stop19" />
			<stop
   offset="1"
   style="stop-color:#71337B"
   id="stop21" />
		</linearGradient>
		<polygon
   class="st5"
   points="1236.4,188.1 1423.7,418.5 1462,442.4 1475.5,442.4 1544.1,409.7 1556.3,391.1 1556.3,207.5 1211.7,137.1 "
   id="polygon24"
   style="fill:url(#SVGID_1_)" />
		<polygon
   class="st6"
   points="1467.6,462.3 1536.9,542.9 1556.3,542.7 1556.3,391.1 1462,442.4 "
   id="polygon26"
   style="fill:#983985" />
		
			<linearGradient
   id="SVGID_2_"
   gradientUnits="userSpaceOnUse"
   x1="1547.2988"
   y1="64.951797"
   x2="1441.1021"
   y2="218.34711"
   gradientTransform="matrix(1,0,0,-1,0,780)">
			<stop
   offset="0"
   style="stop-color:#BB4692"
   id="stop28" />
			<stop
   offset="1"
   style="stop-color:#C24997"
   id="stop30" />
		</linearGradient>
		<polygon
   class="st7"
   points="1434.1,521.3 1428.5,543.7 1456.4,692.7 1470.8,735 1492.3,739 1548.1,722.2 1556.3,712.8 1556.3,597.6 1446.8,515 "
   id="polygon33"
   style="fill:url(#SVGID_2_)" />
		<polygon
   class="st8"
   points="1470.8,735 1475.5,765.3 1495.5,780.1 1556.3,780.1 1556.3,712.8 "
   id="polygon35"
   style="fill:#ce4f97" />
		
			<linearGradient
   id="SVGID_3_"
   gradientUnits="userSpaceOnUse"
   x1="1326.5"
   y1="152.64999"
   x2="1470.8"
   y2="152.64999"
   gradientTransform="matrix(1,0,0,-1,0,780)">
			<stop
   offset="0"
   style="stop-color:#BB4692"
   id="stop37" />
			<stop
   offset="1"
   style="stop-color:#C24997"
   id="stop39" />
		</linearGradient>
		<polygon
   class="st9"
   points="1434.1,521.3 1422.1,519.7 1326.5,558 1328.1,575.6 1450.8,726.2 1470.8,735 "
   id="polygon42"
   style="fill:url(#SVGID_3_)" />
		<polygon
   class="st10"
   points="1449.2,740.6 1434.9,757.3 1440.7,780.1 1495.5,780.1 1470.8,735 "
   id="polygon44"
   style="fill:#e3539e" />
		
			<linearGradient
   id="SVGID_4_"
   gradientUnits="userSpaceOnUse"
   x1="1049.7"
   y1="110.95"
   x2="1470.8"
   y2="110.95"
   gradientTransform="matrix(1,0,0,-1,0,780)">
			<stop
   offset="0"
   style="stop-color:#E35598"
   id="stop46" />
			<stop
   offset="1"
   style="stop-color:#D7529D"
   id="stop48" />
		</linearGradient>
		<polygon
   class="st11"
   points="1326.5,558 1277,571.6 1057.8,727 1049.7,780.1 1440.7,780.1 1470.8,735 "
   id="polygon51"
   style="fill:url(#SVGID_4_)" />
		<polygon
   class="st12"
   points="1462,442.4 1424.5,434.4 1326.5,558 1434.1,521.3 1556.3,597.6 1556.3,542.7 "
   id="polygon53"
   style="fill:#ad428f" />
		
			<linearGradient
   id="SVGID_5_"
   gradientUnits="userSpaceOnUse"
   x1="1166.5249"
   y1="558.13068"
   x2="1392.1931"
   y2="282.314"
   gradientTransform="matrix(1,0,0,-1,0,780)">
			<stop
   offset="0"
   style="stop-color:#78307B"
   id="stop55" />
			<stop
   offset="1"
   style="stop-color:#9C3C87"
   id="stop57" />
		</linearGradient>
		<polygon
   class="st13"
   points="1462,442.4 1326.5,558 1308.1,529.3 1195.7,190.5 1211.7,137.1 "
   id="polygon60"
   style="fill:url(#SVGID_5_)" />
		<polygon
   class="st14"
   points="1326.5,558 1308.1,558 975.7,228 960.5,201.7 998.8,180.9 1165.4,136.3 1211.7,137.1 "
   id="polygon62"
   style="fill:#81337b" />
		
			<linearGradient
   id="SVGID_6_"
   gradientUnits="userSpaceOnUse"
   x1="955.4585"
   y1="510.3837"
   x2="1182.6016"
   y2="92.971397"
   gradientTransform="matrix(1,0,0,-1,0,780)">
			<stop
   offset="0"
   style="stop-color:#AD428B"
   id="stop64" />
			<stop
   offset="1"
   style="stop-color:#D24D94"
   id="stop66" />
		</linearGradient>
		<polygon
   class="st15"
   points="960.5,201.7 955.8,236.7 1007.6,758.9 1025.7,780.1 1049.7,780.1 1326.5,558 "
   id="polygon69"
   style="fill:url(#SVGID_6_)" />
		
			<linearGradient
   id="SVGID_7_"
   gradientUnits="userSpaceOnUse"
   x1="960.5"
   y1="679.15002"
   x2="1211.7"
   y2="679.15002"
   gradientTransform="matrix(1,0,0,-1,0,780)">
			<stop
   offset="0"
   style="stop-color:#4D508C"
   id="stop71" />
			<stop
   offset="1"
   style="stop-color:#564687"
   id="stop73" />
		</linearGradient>
		<polygon
   class="st16"
   points="960.5,201.7 1211.7,137.1 1166.5,0 1100,0 1061,24.7 978.1,163.4 "
   id="polygon76"
   style="fill:url(#SVGID_7_)" />
		<polygon
   class="st17"
   points="1100,0 977.5,0 948.6,54.2 960.5,201.7 "
   id="polygon78"
   style="fill:#356195" />
		
			<linearGradient
   id="SVGID_8_"
   gradientUnits="userSpaceOnUse"
   x1="793.09998"
   y1="679.15002"
   x2="977.5"
   y2="679.15002"
   gradientTransform="matrix(1,0,0,-1,0,780)">
			<stop
   offset="2.663895e-07"
   style="stop-color:#37808F"
   id="stop80" />
			<stop
   offset="1"
   style="stop-color:#3D759F"
   id="stop82" />
		</linearGradient>
		<polygon
   class="st18"
   points="960.5,201.7 977.5,0 797.8,0 793.1,28.7 905.5,153 "
   id="polygon85"
   style="fill:url(#SVGID_8_)" />
		
			<linearGradient
   id="SVGID_9_"
   gradientUnits="userSpaceOnUse"
   x1="703.79999"
   y1="289.10001"
   x2="1025.7"
   y2="289.10001"
   gradientTransform="matrix(1,0,0,-1,0,780)">
			<stop
   offset="0"
   style="stop-color:#C84D83"
   id="stop87" />
			<stop
   offset="1"
   style="stop-color:#E65785"
   id="stop89" />
		</linearGradient>
		<polygon
   class="st19"
   points="921.5,250.3 737.3,512.6 703.8,672 723,703.1 880.8,760.5 968.4,780.1 1025.7,780.1 960.5,201.7 "
   id="polygon92"
   style="fill:url(#SVGID_9_)" />
		<polygon
   class="st20"
   points="658.4,747 666.2,780.1 968.4,780.1 703.8,672 "
   id="polygon94"
   style="fill:#e25677" />
		<polygon
   class="st21"
   points="579.5,588.3 677.5,662.4 703.8,672 960.5,201.7 931.8,212.8 578.7,521.3 565.1,541.3 "
   id="polygon96"
   style="fill:#db5873" />
		<linearGradient
   id="SVGID_10_"
   gradientUnits="userSpaceOnUse"
   x1="788.54108"
   y1="11.2728"
   x2="727.54108"
   y2="77.272797">
			<stop
   offset="0"
   style="stop-color:#C84D83"
   id="stop98" />
			<stop
   offset="1"
   style="stop-color:#E65785"
   id="stop100" />
		</linearGradient>
		<polygon
   class="st22"
   points="960.5,201.7 797.8,0 451,0 465.5,15.9 938.2,202.5 "
   id="polygon103"
   style="fill:url(#SVGID_10_)" />
		
			<linearGradient
   id="SVGID_11_"
   gradientUnits="userSpaceOnUse"
   x1="444.70001"
   y1="509.35001"
   x2="960.5"
   y2="509.35001"
   gradientTransform="matrix(1,0,0,-1,0,780)">
			<stop
   offset="2.663895e-07"
   style="stop-color:#E48A54"
   id="stop105" />
			<stop
   offset="1"
   style="stop-color:#D8965C"
   id="stop107" />
		</linearGradient>
		<polygon
   class="st23"
   points="960.5,201.7 565.1,541.3 537.2,478.3 444.7,72.5 451,0 "
   id="polygon110"
   style="fill:url(#SVGID_11_)" />
		<polygon
   class="st24"
   points="526.8,547.6 324.4,612.2 306.8,627.4 256.6,742.2 262.3,780.1 297,780.1 565.1,541.3 "
   id="polygon112"
   style="fill:#e97362" />
		<polygon
   class="st25"
   points="565.1,541.3 527.6,527.7 263,494.2 249.4,500.6 248.6,522.9 306.8,627.4 "
   id="polygon114"
   style="fill:#e37d55" />
		<polygon
   class="st26"
   points="249.4,500.6 249.4,465.5 263.8,388.2 288.5,327.6 313.2,335.6 550.8,514.2 565.1,541.3 "
   id="polygon116"
   style="fill:#e28b54" />
		<polygon
   class="st27"
   points="565.1,541.3 451,0 420,44.6 290.9,296.5 288.5,327.6 "
   id="polygon118"
   style="fill:#e4a756" />
		<polygon
   class="st28"
   points="249.4,500.6 235.1,493.4 212.7,474.3 210.4,463.9 213.5,424.9 265.4,347.5 288.5,327.6 "
   id="polygon120"
   style="fill:#e59d55" />
		<polygon
   class="st29"
   points="288.5,327.6 239.1,294.1 230.3,271 289.3,172.2 422.4,15.9 451,0 "
   id="polygon122"
   style="fill:#e3c255" />
		<polygon
   class="st30"
   points="288.5,327.6 268.5,326.8 137,385 127.4,397 154.5,449.6 210.4,463.9 "
   id="polygon124"
   style="fill:#e1a354" />
		<polygon
   class="st31"
   points="249.4,500.6 211.9,531.7 104.3,713.5 133.8,715.9 306.8,627.4 "
   id="polygon126"
   style="fill:#e38355" />
		<polygon
   class="st32"
   points="104.3,713.5 112.3,753.3 166.3,780.1 262.3,780.1 306.8,627.4 "
   id="polygon128"
   style="fill:#e47959" />
		<polygon
   class="st33"
   points="86.8,720.6 60.5,762.1 64,780.1 166.3,780.1 104.3,713.5 "
   id="polygon130"
   style="fill:#e5765e" />
		<polygon
   class="st34"
   points="104.3,713.5 30.2,684 0,688.2 0,780.1 64,780.1 "
   id="polygon132"
   style="fill:#e67a56" />
		<path
   class="st35"
   d="M 104.3,713.5 V 688 c 0,0 -22.3,-43 -31.1,-47.8 -8.8,-4.8 -51.8,-43 -51.8,-43 L 0,605.7 v 82.5 z"
   id="path134"
   inkscape:connector-curvature="0"
   style="fill:#e28a54" />
		<polygon
   class="st36"
   points="249.4,500.6 210.4,463.9 196.8,460.8 42.1,506.2 0,532.8 0,605.7 104.3,713.5 "
   id="polygon136"
   style="fill:#e39452" />
		<polygon
   class="st37"
   points="127.4,397 113.1,400.2 73.2,432.8 0,507.5 0,532.8 210.4,463.9 "
   id="polygon138"
   style="fill:#e49e56" />
		<polygon
   class="st38"
   points="56.5,338 62.1,357.1 127.4,397 288.5,327.6 230.3,271 176.1,280.6 "
   id="polygon140"
   style="fill:#e4b154" />
		<polygon
   class="st39"
   points="110.7,169 58.1,309.3 56.5,338 230.3,271 223.9,173 144.2,132.3 "
   id="polygon142"
   style="fill:#e5c253" />
		<polygon
   class="st40"
   points="56.5,338 43.7,342.8 11.8,373.1 0,394.5 0,507.5 127.4,397 "
   id="polygon144"
   style="fill:#e3a454" />
		<polygon
   class="st38"
   points="13.4,317.3 0,323.1 0,394.5 56.5,338 "
   id="polygon146"
   style="fill:#e4b154" />
		<polygon
   class="st41"
   points="52.5,325.2 11,278.2 0,279.7 0,323.1 56.5,338 "
   id="polygon148"
   style="fill:#e6bb54" />
		<polygon
   class="st42"
   points="129,130.7 144.2,132.3 230.3,271 451,0 61,0 "
   id="polygon150"
   style="fill:#e4d255" />
		<polygon
   class="st43"
   points="56.5,338 144.2,132.3 69.1,0 0,0 0,279.7 "
   id="polygon152"
   style="fill:#e3c855" />
		<polygon
   class="st44"
   points="230.3,271 451,0 239.5,0 "
   id="polygon154"
   style="fill:#e4cb55" />
		<polygon
   class="st45"
   points="703.8,672 597.3,723.6 514.1,711.1 565.1,541.3 "
   id="polygon156"
   style="fill:#e7626f" />
		<polygon
   class="st46"
   points="666.2,780.1 703.8,672 514.1,711.1 437.5,780.1 "
   id="polygon158"
   style="fill:#e65b6e" />
	</g>
</g>
</svg>